<svg width="37" height="32" viewBox="0 0 37 32" fill="none" xmlns="http://www.w3.org/2000/svg">
<path fill-rule="evenodd" clip-rule="evenodd" d="M31.07 0.282426C30.6203 0.0962787 30.1383 0.000311396 29.6515 0C29.1647 0.000311396 28.6827 0.0962787 28.233 0.282426C28.0081 0.373411 27.7933 0.487446 27.592 0.622698C27.1862 0.89153 26.8384 1.2386 26.569 1.64351C26.4335 1.8444 26.3192 2.05879 26.228 2.28323C25.8511 3.18942 25.8511 4.2081 26.228 5.11429C26.3192 5.33873 26.4335 5.55311 26.569 5.754C26.8384 6.15891 27.1862 6.50599 27.592 6.77482C27.7933 6.91007 28.0081 7.02411 28.233 7.11509C29.1411 7.49129 30.1619 7.49129 31.07 7.11509C31.2949 7.02411 31.5097 6.91007 31.711 6.77482C32.1168 6.50599 32.4646 6.15891 32.734 5.754C32.8695 5.55311 32.9838 5.33873 33.0749 5.11429C33.4519 4.2081 33.4519 3.18942 33.0749 2.28323C32.9838 2.05879 32.8695 1.8444 32.734 1.64351C32.4646 1.2386 32.1168 0.89153 31.711 0.622698C31.5097 0.487446 31.2949 0.373411 31.07 0.282426ZM33.2347 14.3698C32.742 12.306 30.0039 10.5791 27.276 12.4761C26.2974 13.3847 25.9104 14.4991 25.9599 15.8295C26.0021 16.5655 26.0212 16.6884 26.017 16.8105C26.0127 16.9329 25.9852 17.0545 25.9343 17.7915C25.6479 21.002 22.9064 23.4332 19.3261 23.8143C15.2326 24.2516 10.8493 21.3338 11.0743 16.4764C11.2089 13.593 11.1759 10.7064 11.1429 7.81995C11.1282 6.53866 11.1135 5.2574 11.1135 3.97647C11.1135 1.70005 9.55867 0.0752471 7.39684 0.0820526C5.27424 0.0922607 3.71766 1.70515 3.71766 3.92883C3.71715 4.077 3.71665 4.22518 3.71614 4.37336C3.70125 8.72911 3.68633 13.0909 3.71766 17.4495C3.74153 19.9114 4.38428 22.2389 5.76355 24.2805C9.20404 29.388 14.1056 31.5521 20.17 31.0247C27.2385 30.4156 33.175 24.7994 33.3455 17.584C33.3455 17.131 33.3475 16.8577 33.3492 16.6256C33.352 16.2526 33.3539 15.9862 33.3455 15.2521C33.3413 14.9007 33.356 14.8537 33.3509 14.809C33.3457 14.7639 33.3203 14.721 33.2347 14.3698Z" fill="#2794EE"/>
</svg>
